<?xml version="1.0" encoding="utf-8"?>
<!-- Generator: Adobe Illustrator 24.2.0, SVG Export Plug-In . SVG Version: 6.00 Build 0)  -->
<svg version="1.0" id="Layer_1" xmlns="http://www.w3.org/2000/svg" xmlns:xlink="http://www.w3.org/1999/xlink" x="0px" y="0px"
	 viewBox="0 0 300 280" enable-background="new 0 0 300 280" xml:space="preserve">
<g>
	<polygon fill="#2AAB4F" points="253.53,226.3 250.52,221.02 249.89,219.92 248.72,217.89 150,217.89 51.28,217.89 50.11,219.92 
		49.48,221.02 46.47,226.3 41.76,234.54 150,234.54 258.24,234.54 	"/>
	<polygon fill="#FBBA14" points="253.53,226.3 250.52,221.02 249.89,219.92 248.72,217.89 150,45.46 51.28,217.89 50.11,219.92 
		49.48,221.02 46.47,226.3 41.76,234.54 55.95,234.54 62.16,232.53 70.54,217.89 74.02,211.82 74.05,211.8 76.1,208.18 
		95.71,173.93 150,79.11 204.29,173.93 223.9,208.18 225.95,211.8 225.98,211.82 229.46,217.89 237.84,232.53 244.05,234.54 
		258.24,234.54 	"/>
	<polygon fill="#EE3D2C" points="250.52,221.02 249.07,219.55 247.43,217.89 204.29,173.93 150,118.64 95.71,173.93 52.57,217.89 
		50.93,219.55 49.48,221.02 46.47,226.3 62.42,217.89 74.02,211.82 74.05,211.8 91.32,202.69 93.68,200.24 150,141.73 
		206.32,200.24 208.68,202.69 225.95,211.8 225.98,211.82 237.58,217.89 253.53,226.3 	"/>
	<polygon fill="#517ABD" points="253.53,226.3 250.52,221.02 249.89,219.92 249.07,219.55 245.4,217.89 223.9,208.18 206.32,200.24 
		150,174.81 93.68,200.24 76.1,208.18 54.6,217.89 50.93,219.55 50.11,219.92 49.48,221.02 46.47,226.3 41.76,234.54 57.73,234.54 
		62.16,232.53 94.59,217.89 150,192.88 205.41,217.89 237.84,232.53 242.27,234.54 258.24,234.54 	"/>
</g>
</svg>
